<svg xmlns="http://www.w3.org/2000/svg" viewBox="0 0 320 100"><defs><style>.a{fill:#b9b0ff;}.b{fill:#72b38e;}.c{fill:#ffecc9;}.d{fill:none;stroke:#ffecc9;stroke-linecap:round;stroke-miterlimit:10;stroke-width:5px;}</style></defs><title>2020 typeface concept</title><path class="a" d="M13.68,17.66l.17.67-3,1.7,2.54,1.7-.4.65-2.89-2,.11-.76Z"/><path class="a" d="M20.41,16.14l-.11.58H18.51l-1.15,5.91h-.7l1.14-5.91H16.07l.11-.58Z"/><path class="a" d="M21.69,20.59a1.21,1.21,0,0,0,1.21,1.53,2.3,2.3,0,0,0,1.51-.68l.35.52a2.81,2.81,0,0,1-1.92.8A1.78,1.78,0,0,1,21,20.59c.23-1.57,1.2-2.84,2.54-2.84a1.49,1.49,0,0,1,1.56,1.42C25.08,20.44,23.19,20.67,21.69,20.59Zm.08-.47c1.2-.08,2.59-.22,2.59-1a.91.91,0,0,0-1-.77C22.58,18.35,22,19.2,21.77,20.12Z"/><path class="a" d="M28.85,20.31,30,22.63h-.74l-.89-1.75L27,22.63h-.77l1.87-2.34-1.22-2.4h.75l.93,1.83L30,17.89h.76Z"/><path class="a" d="M33.53,21.24c-.05.55.15.85.6.85a1.44,1.44,0,0,0,1.15-.78l.19.25c-.3.63-.74,1.2-1.46,1.2A1.14,1.14,0,0,1,32.8,21.4c0-.12,0-.25.05-.39.06-.35.25-1.17.44-2.05,0-.17.08-.32.11-.49h-.88l.08-.58h.93c.16-.75.3-1.43.35-1.75h.7c0,.32-.19,1-.35,1.75h1.46l-.08.58H34.1l-.1.44c-.2.9-.37,1.74-.44,2.1A1,1,0,0,0,33.53,21.24Z"/><path class="a" d="M43.26,22.25,42.9,24.3l-.72.05,1.14-6.46h.89a1.43,1.43,0,0,0-.28.58l0,.3a0,0,0,0,0,0,0l-.14.81h0l-.28,1.58h0Zm3.94-2a2.74,2.74,0,0,1-2.68,2.47,1.72,1.72,0,0,1-1.26-.51l.19-1.09a1.22,1.22,0,0,0,1.18.92,1.94,1.94,0,0,0,1.88-1.79c.2-1.11-.26-1.93-1.08-1.93-.58,0-1.09.37-1.7,1.22l.15-.81a2.1,2.1,0,0,1,1.77-1C46.87,17.75,47.47,18.74,47.2,20.29Z"/><path class="a" d="M50.05,18.88a2.76,2.76,0,0,1,1.8-1,2,2,0,0,1,1,.23l-.54.68a2,2,0,0,0-2.34,1l-.57,2.86h-.69l.65-3.45a.62.62,0,0,0-.36-.76l.7-.27C49.84,18.3,50.12,18.45,50.05,18.88Z"/><path class="a" d="M53.83,20.17a2.51,2.51,0,0,1,2.49-2.42c1.35,0,2.08,1,1.87,2.5a2.62,2.62,0,0,1-2.52,2.51C54.33,22.76,53.61,21.74,53.83,20.17Zm3.57,0c.17-1.19-.25-1.84-1.12-1.83s-1.46.7-1.64,1.91.23,1.9,1,1.9S57.22,21.42,57.4,20.17Z"/><path class="a" d="M59.76,22.25,59.4,24.3l-.72.05,1.14-6.46h.89a1.43,1.43,0,0,0-.28.58l0,.3a0,0,0,0,0,0,0l-.14.81h0L60,21.16h0Zm3.94-2A2.74,2.74,0,0,1,61,22.76a1.72,1.72,0,0,1-1.26-.51L60,21.16a1.21,1.21,0,0,0,1.17.92A2,2,0,0,0,63,20.29c.2-1.11-.26-1.93-1.09-1.93-.57,0-1.08.37-1.69,1.22l.15-.81a2.1,2.1,0,0,1,1.77-1C63.37,17.75,64,18.74,63.7,20.29Z"/><path class="a" d="M68.84,21.35a1.55,1.55,0,0,1-1.7,1.4,3.17,3.17,0,0,1-1.28-.28l.32-.59a1.43,1.43,0,0,0,.57.2l.37,0c.61,0,1-.3,1-.73a2.88,2.88,0,0,0-.64-1.28,2,2,0,0,1-.41-.76,8.72,8.72,0,0,1-1.81,2.36l-.52-.55A7,7,0,0,0,67,17.89h.91a2.31,2.31,0,0,0-.24.9,1.21,1.21,0,0,0,.35.8A3.41,3.41,0,0,1,68.84,21.35Z"/><path class="a" d="M70.7,21.09l.13-.58h3.23l-.14.58Zm.21-1.47L71,19h3.23l-.14.58Z"/><path class="a" d="M78.58,17.34a14.29,14.29,0,0,1,0,1.72,1.24,1.24,0,0,1-1,1.15c.62.1.76.69.66,1.29s-.51,1.09-.58,1.59.44.74,1,.66l-.06.55c-1,.08-1.88-.35-1.71-1.37.1-.6.46-.8.57-1.53.06-.36.06-.85-.92-.85l.07-.66c1,0,1.18-.51,1.25-.93.1-.67-.18-1.05-.08-1.65.13-.82.93-1.27,2.08-1.17l0,.55C79.28,16.6,78.67,16.74,78.58,17.34Z"/><path class="a" d="M82.19,20.59a1.21,1.21,0,0,0,1.21,1.53,2.32,2.32,0,0,0,1.51-.68l.35.52a2.83,2.83,0,0,1-1.92.8,1.78,1.78,0,0,1-1.86-2.17c.23-1.57,1.2-2.84,2.54-2.84a1.49,1.49,0,0,1,1.56,1.42C85.58,20.44,83.69,20.67,82.19,20.59Zm.08-.47c1.2-.08,2.59-.22,2.59-1a.91.91,0,0,0-1-.77C83.08,18.35,82.46,19.2,82.27,20.12Z"/><path class="a" d="M87.59,19.07l-.52,3a1.18,1.18,0,0,0,0,.55h-.76l.83-4.74h.71l-.08.42Zm2.63,3.69c-.27,0-.42-.24-.34-.57,0-.1.14-.73.47-2.21.19-.85.37-1.56-.21-1.56-.19,0-.47.21-.73.76l0,.13-.58,3.32h-.68l.62-3.49c.06-.37-.07-.68-.43-.68s-.44.2-.72.61l.13-.76a1,1,0,0,1,.9-.56.73.73,0,0,1,.75.64,1,1,0,0,1,.84-.64c.94,0,1,.78.75,2.14-.21,1.15-.39,1.8-.44,2s.2.28.45.16l.13.31A1.63,1.63,0,0,1,90.22,22.76Z"/><path class="a" d="M92.32,20.17a2.52,2.52,0,0,1,2.5-2.42c1.35,0,2.08,1,1.87,2.5a2.62,2.62,0,0,1-2.52,2.51C92.83,22.76,92.11,21.74,92.32,20.17Zm3.58,0c.16-1.19-.25-1.84-1.12-1.83s-1.46.7-1.64,1.91.23,1.9,1,1.9S95.72,21.42,95.9,20.17Z"/><path class="a" d="M99.53,21.24c0,.55.14.85.6.85a1.44,1.44,0,0,0,1.15-.78l.19.25c-.3.63-.75,1.2-1.46,1.2A1.14,1.14,0,0,1,98.8,21.4a3,3,0,0,1,0-.39c.06-.35.25-1.17.44-2.05,0-.17.08-.32.11-.49h-.88l.08-.58h.92c.17-.75.31-1.43.35-1.75h.7c0,.32-.18,1-.35,1.75h1.47l-.08.58H100.1l-.1.44c-.2.9-.37,1.74-.44,2.1A1,1,0,0,0,99.53,21.24Z"/><path class="a" d="M107,21.56c-.3.63-.74,1.2-1.46,1.2-1,0-1.36-.69-1.16-1.75.13-.64.42-1.72.64-2.56l-.94,0,.14-.51,1.64-.09c-.2.84-.63,2.32-.77,3.12s.06,1.08.58,1.08a1.44,1.44,0,0,0,1.15-.78ZM105.89,16a.4.4,0,0,1,.44.52.55.55,0,0,1-.59.52.4.4,0,0,1-.45-.52A.57.57,0,0,1,105.89,16Z"/><path class="a" d="M108.82,20.17a2.52,2.52,0,0,1,2.49-2.42c1.35,0,2.09,1,1.88,2.5a2.62,2.62,0,0,1-2.52,2.51C109.33,22.76,108.61,21.74,108.82,20.17Zm3.58,0c.16-1.19-.25-1.84-1.12-1.83s-1.46.7-1.64,1.91.23,1.9,1,1.9S112.22,21.42,112.4,20.17Z"/><path class="a" d="M115.23,20.25l-.41,2.38h-.71l.83-4.74h.89a1.57,1.57,0,0,0-.28.58l-.15.85Zm3.33,2a1.53,1.53,0,0,1-1,.48c-.27,0-.39-.25-.32-.57,0-.11.18-.75.54-2.2.22-.85-.12-1.57-.8-1.57s-1.11.56-1.81,2l0-.16.17-.93c.53-1.1,1.09-1.57,1.86-1.57.95,0,1.51,1,1.22,2.14s-.51,1.77-.57,2,0,.23.11.23a1.34,1.34,0,0,0,.44-.13Z"/><path class="a" d="M121.71,21.47c.33,0,.48.18.42.51a.57.57,0,0,1-.61.53c-.34,0-.49-.18-.43-.53A.58.58,0,0,1,121.71,21.47Zm.65-3.17c.33,0,.48.19.42.52a.57.57,0,0,1-.61.52c-.34,0-.49-.18-.43-.52A.59.59,0,0,1,122.36,18.3Z"/><path class="a" d="M132.92,17.39a.47.47,0,0,1,0,.3.65.65,0,0,1-.58.62c-.34.06-.51-.1-.46-.43a.66.66,0,0,1,.06-.25h0A6.61,6.61,0,0,1,133.13,16l.4.15C133.46,16.3,133.15,16.92,132.92,17.39Zm1.42,0a.47.47,0,0,1,0,.3.65.65,0,0,1-.58.62c-.34.06-.51-.1-.47-.43a.66.66,0,0,1,.07-.25h0A6.61,6.61,0,0,1,134.55,16l.4.15C134.87,16.3,134.56,16.92,134.34,17.39Z"/><path class="a" d="M140.34,21.35a1.55,1.55,0,0,1-1.7,1.4,3.17,3.17,0,0,1-1.28-.28l.32-.59a1.43,1.43,0,0,0,.57.2l.36,0c.62,0,1-.3,1-.73a2.82,2.82,0,0,0-.65-1.28,2.08,2.08,0,0,1-.4-.76,8.72,8.72,0,0,1-1.81,2.36l-.52-.55a7,7,0,0,0,2.22-3.25h.91a2.31,2.31,0,0,0-.24.9,1.24,1.24,0,0,0,.34.8A3.36,3.36,0,0,1,140.34,21.35Z"/><path class="a" d="M145.21,21.15l-.19,1.1a2.39,2.39,0,0,1-1.44.51c-1.37,0-2.07-1-1.81-2.47s1.23-2.54,2.44-2.54a1.38,1.38,0,0,1,1.42,1l-.14.81c-.32-.86-.69-1.23-1.27-1.23a2.09,2.09,0,0,0-1.76,1.93c-.19,1.1.3,1.79,1.26,1.79A1.83,1.83,0,0,0,145.21,21.15Zm.58-3.26h.71l-.74,4.19a1.33,1.33,0,0,0,0,.55H145Z"/><path class="a" d="M150.56,21.15l-.23,1.1a2.49,2.49,0,0,1-1.46.51c-1.36,0-2.05-1-1.73-2.47s1.32-2.54,2.53-2.54a1.33,1.33,0,0,1,1.39,1l-.17.81c-.28-.86-.65-1.23-1.23-1.23a2.18,2.18,0,0,0-1.83,1.93c-.22,1.1.24,1.79,1.2,1.79A1.94,1.94,0,0,0,150.56,21.15Zm1.05-5-1.28,6.09c-.07.31.08.53.5.53a1.46,1.46,0,0,0,.71-.21l0-.32a.52.52,0,0,1-.21.06c-.17,0-.22-.17-.13-.56l1.05-5c0-.19.12-.39.17-.55Z"/><path class="a" d="M154.86,16.87a6.61,6.61,0,0,1-1.16,1.59l-.4-.15c.07-.12.38-.73.61-1.21a.44.44,0,0,1,0-.3.65.65,0,0,1,.59-.61c.34-.06.51.1.46.43a.71.71,0,0,1-.06.25Zm1.47-.25a.72.72,0,0,1-.07.25h0a6.61,6.61,0,0,1-1.16,1.59l-.4-.15c.08-.12.39-.73.61-1.21a.45.45,0,0,1,0-.3.64.64,0,0,1,.58-.61C156.21,16.13,156.37,16.29,156.33,16.62Z"/><path class="a" d="M160.71,22.23a.77.77,0,0,1-.09.28,5.62,5.62,0,0,1-1.17,1.37l-.39-.22c.08-.11.4-.67.65-1.11a.53.53,0,0,1,0-.32.54.54,0,0,1,.59-.51C160.6,21.72,160.76,21.9,160.71,22.23Z"/><path class="a" d="M173.38,22l.11.3a1.6,1.6,0,0,1-1,.48c-.26,0-.38-.25-.3-.57,0-.11.19-.75.57-2.2.23-.85-.09-1.57-.77-1.57s-1.1.54-1.82,1.93l-.46,2.28H169l1.34-6.54.69.05-.63,3.08c.54-1,1.09-1.47,1.84-1.47,1,0,1.49,1,1.19,2.14s-.54,1.77-.6,2,0,.23.1.23A1.31,1.31,0,0,0,173.38,22Z"/><path class="a" d="M176.53,21.24c-.05.55.14.85.6.85a1.44,1.44,0,0,0,1.15-.78l.18.25c-.3.63-.74,1.2-1.45,1.2s-1.25-.53-1.21-1.36a3,3,0,0,1,0-.39c.06-.35.25-1.17.44-2.05,0-.17.07-.32.11-.49h-.89l.09-.58h.92c.17-.75.31-1.43.35-1.75h.7c0,.32-.18,1-.35,1.75h1.47l-.08.58H177.1l-.1.44c-.2.9-.37,1.74-.44,2.1A1,1,0,0,0,176.53,21.24Z"/><path class="a" d="M181.09,19.07l-.53,3a1.33,1.33,0,0,0-.05.55h-.75l.83-4.74h.71l-.08.42Zm2.63,3.69c-.27,0-.42-.24-.34-.57,0-.1.13-.73.47-2.21.19-.85.36-1.56-.21-1.56-.19,0-.48.21-.73.76l0,.13-.58,3.32h-.68l.62-3.49c.06-.37-.08-.68-.43-.68s-.45.2-.72.61l.13-.76a1,1,0,0,1,.9-.56.73.73,0,0,1,.75.64,1,1,0,0,1,.84-.64c.94,0,1,.78.75,2.14-.21,1.15-.4,1.8-.45,2s.21.28.46.16l.13.31A1.66,1.66,0,0,1,183.72,22.76Z"/><path class="a" d="M189.51,21.31l.19.25a1.72,1.72,0,0,1-1.49,1.2c-.8,0-1.08-.39-1.08-1.15a6.18,6.18,0,0,1,.18-1.23,6.19,6.19,0,0,1-1.09.56l-.11-.46a3.86,3.86,0,0,0,1.35-.75c.41-2.24.94-3.73,1.44-3.73a1.12,1.12,0,0,1,.89,1.16c0,1-.5,1.86-1.83,2.84-.07.32-.13.66-.2,1a2.75,2.75,0,0,0,0,.38c0,.46.19.7.61.7A1.44,1.44,0,0,0,189.51,21.31Zm-1.4-2.06a3.12,3.12,0,0,0,1.15-1.94c0-.21,0-.52-.26-.52S188.45,17.73,188.11,19.25Z"/><path class="a" d="M196.4,16.14l-.1.58h-1.8l-1.15,5.91h-.69l1.14-5.91h-1.74l.12-.58Z"/><path class="a" d="M200.21,21.15l-.19,1.1a2.43,2.43,0,0,1-1.44.51c-1.37,0-2.08-1-1.82-2.47s1.24-2.54,2.45-2.54a1.38,1.38,0,0,1,1.42,1l-.14.81c-.32-.86-.69-1.23-1.27-1.23a2.09,2.09,0,0,0-1.76,1.93c-.2,1.1.3,1.79,1.26,1.79A1.84,1.84,0,0,0,200.21,21.15Zm.58-3.26h.71l-.74,4.19a1.33,1.33,0,0,0,0,.55H200Z"/><path class="a" d="M207.08,17.89c-.05.16-.12.36-.16.55l-.81,4.19a2.28,2.28,0,0,1-2.42,1.5,3.2,3.2,0,0,1-1.42-.3l.56-.52a2.38,2.38,0,0,0,1,.18c.84,0,1.48-.29,1.59-.86l.2-1a2.87,2.87,0,0,1-1.52.54,1.73,1.73,0,0,1-1.74-2.28,2.55,2.55,0,0,1,2.59-2.15,1.31,1.31,0,0,1,1.28.71l.11-.57Zm-1.31,2.83.28-1.43a1.26,1.26,0,0,0-1.24-.93A1.91,1.91,0,0,0,203,19.9a1.24,1.24,0,0,0,1.18,1.6A2,2,0,0,0,205.77,20.72Z"/><path class="a" d="M209.71,21.47c.33,0,.48.18.42.51a.58.58,0,0,1-.61.53c-.34,0-.49-.18-.43-.53A.58.58,0,0,1,209.71,21.47Zm.64-3.17c.34,0,.49.19.43.52a.57.57,0,0,1-.61.52c-.34,0-.49-.18-.43-.52A.58.58,0,0,1,210.35,18.3Z"/><path class="a" d="M220.92,17.39a.47.47,0,0,1,0,.3.65.65,0,0,1-.58.62c-.34.06-.51-.1-.47-.43a.91.91,0,0,1,.07-.25h0A6.61,6.61,0,0,1,221.13,16l.4.15C221.46,16.3,221.15,16.92,220.92,17.39Zm1.42,0a.47.47,0,0,1,0,.3.65.65,0,0,1-.58.62c-.34.06-.51-.1-.47-.43a.66.66,0,0,1,.07-.25h0A6.61,6.61,0,0,1,222.55,16l.4.15C222.87,16.3,222.56,16.92,222.34,17.39Z"/><path class="a" d="M228.38,22l.11.3a1.6,1.6,0,0,1-1,.48c-.26,0-.38-.25-.31-.57,0-.11.2-.75.58-2.2.23-.85-.09-1.57-.77-1.57s-1.1.54-1.82,1.93l-.46,2.28H224l1.34-6.54.69.05-.63,3.08c.54-1,1.09-1.47,1.84-1.47.94,0,1.49,1,1.19,2.14s-.55,1.77-.6,2,0,.23.1.23A1.31,1.31,0,0,0,228.38,22Z"/><path class="a" d="M232.56,16.63a1.89,1.89,0,0,0-1.56.83l-.45-.37a2.23,2.23,0,0,1,2-1.1c1.12,0,1.81.63,1.69,1.55C234,18.93,232,20.49,230.6,22h3.29l-.1.66h-4.25l.08-.66c1.44-1.49,3.72-3.14,3.92-4.51C233.61,16.94,233.27,16.63,232.56,16.63Z"/><path class="a" d="M237.35,16.87a6.6,6.6,0,0,1-1.15,1.59l-.4-.15c.07-.12.38-.73.6-1.21a.52.52,0,0,1,0-.3.65.65,0,0,1,.59-.61c.34-.06.5.1.46.43a1,1,0,0,1-.06.25Zm1.48-.25a1,1,0,0,1-.07.25h0a6.61,6.61,0,0,1-1.16,1.59l-.4-.15c.08-.12.39-.73.61-1.21a.45.45,0,0,1,0-.3.64.64,0,0,1,.58-.61C238.7,16.13,238.87,16.29,238.83,16.62Z"/><path class="a" d="M242.14,16.14c1.18-.1,1.83.35,1.71,1.17-.1.6-.5,1-.6,1.65-.06.42,0,.93.95.93l-.14.66c-1,0-1.13.49-1.19.85-.12.73.18.93.09,1.53a1.81,1.81,0,0,1-2.14,1.37l.12-.55c.57.08,1.15,0,1.26-.66s-.2-.87-.09-1.59a1.39,1.39,0,0,1,1.07-1.29c-.62-.12-.77-.57-.68-1.15a17.1,17.1,0,0,1,.6-1.72c.1-.6-.47-.74-1.08-.65Z"/><path class="a" d="M246.25,23.78l-.48-.33,4.88-7.82.49.31Z"/><path class="a" d="M255.71,20.4l-3.45,2-.21-.65,3-1.7-2.55-1.7.36-.67,2.93,2Z"/><path class="a" d="M15.11,32.47l.39.93-3.91,2.38,3.91,2.39-.42.91-4.46-2.77V35.24Z"/><path class="a" d="M23.77,30.33v.82H21.26v8.28h-1V31.15H17.84v-.82Z"/><path class="a" d="M31.34,36l0,.57-4.74,0a2,2,0,0,0,2,2.12,2.78,2.78,0,0,0,2-.94l.59.72a3.42,3.42,0,0,1-2.53,1.12,2.92,2.92,0,0,1-3-3V36c.06-2.15,1.07-3.4,3-3.4S31.42,33.83,31.34,36Zm-2.89-2.52c-1.29,0-1.8.85-1.86,2.22h3.69C30.35,34.26,29.74,33.47,28.45,33.47Z"/><path class="a" d="M37.85,39.43l-1.64-2.56-1.64,2.56H33.51l2.19-3.38-2.08-3.27h1.05l1.56,2.44,1.57-2.44h1.05l-2.1,3.27,2.16,3.38Z"/><path class="a" d="M46.87,38.06a2.47,2.47,0,0,1-2.27,1.55,2.31,2.31,0,0,1-2.31-2.45V33.68H41.22v-.9h1.07V30.26l1,.07v2.45h2.84v.9H43.28v3.48a1.32,1.32,0,0,0,1.31,1.47,1.49,1.49,0,0,0,1.39-1Z"/><path class="a" d="M62.33,35.92c0,2.22-1.23,3.68-3.07,3.68a2.8,2.8,0,0,1-1.88-.67v2.84l-1,.07V32.78h1.25a1.73,1.73,0,0,0-.25.82v0a2.23,2.23,0,0,1,2-1C61.24,32.59,62.33,33.82,62.33,35.92Zm-1,0c0-1.48-.77-2.45-2-2.45a2.22,2.22,0,0,0-2,1.32v2.84a1.76,1.76,0,0,0,1.88,1C60.47,38.65,61.33,37.52,61.33,35.92Z"/><path class="a" d="M67.08,34.8v3.82h2v0a2.76,2.76,0,0,0,.07.77H64.06v-.81h2.07v-5l-1.37-.08v-.74h2.45a2.61,2.61,0,0,0-.18.78,2.19,2.19,0,0,1,2-1,3.3,3.3,0,0,1,1.27.32l-.62,1A1.75,1.75,0,0,0,67.08,34.8Z"/><path class="a" d="M71.63,36c0-2.13,1.18-3.45,3.06-3.45S77.77,34,77.77,36s-1.22,3.57-3.08,3.57S71.63,38.21,71.63,36Zm5,0c0-1.71-.72-2.64-2-2.63s-1.89,1-1.89,2.63.71,2.72,1.89,2.72S76.64,37.75,76.64,36Z"/><path class="a" d="M85.43,35.92c0,2.22-1.23,3.68-3.08,3.68a2.8,2.8,0,0,1-1.87-.67v2.84l-1,.07V32.78h1.25a1.73,1.73,0,0,0-.25.82v0a2.22,2.22,0,0,1,2-1C84.34,32.59,85.43,33.82,85.43,35.92Zm-1,0c0-1.48-.77-2.45-2-2.45a2.22,2.22,0,0,0-2,1.32v2.84a1.75,1.75,0,0,0,1.87,1C83.57,38.65,84.43,37.52,84.43,35.92Z"/><path class="a" d="M92.86,37.47c0,1.25-1,2.14-2.65,2.14a3.3,3.3,0,0,1-2.79-1.4l.66-.68a2.82,2.82,0,0,0,2.14,1.19c.91,0,1.7-.57,1.7-1.23,0-.45-.35-.66-1.5-.89-1.93-.39-2.72-1-2.72-2s1-2,2.58-2a2.93,2.93,0,0,1,2.5,1.09l-.63.63a2.21,2.21,0,0,0-1.77-.81c-1,0-1.75.44-1.75,1s.58.84,1.87,1.09C92.18,35.94,92.86,36.47,92.86,37.47Z"/><path class="a" d="M95.44,35.09l.07-.93h4.64l-.07.93Zm0,2.42.07-.94h4.64l-.07.94Z"/><path class="a" d="M105.72,32c0,.62.46,1.44.46,2.41A1.49,1.49,0,0,1,105,36c.91.15,1.2.94,1.2,1.76,0,1-.46,1.55-.46,2.23,0,.89.81,1.1,1.64,1v.77c-1.45.12-2.68-.46-2.68-1.87,0-.86.47-1.14.47-2.13,0-.54-.14-1.25-1.52-1.25v-.94c1.37,0,1.52-.67,1.52-1.23,0-1-.47-1.5-.47-2.32,0-1.32,1.24-1.82,2.68-1.7v.77C106.52,31,105.72,31.14,105.72,32Z"/><path class="a" d="M116,36l0,.57-4.73,0a2,2,0,0,0,2,2.12,2.75,2.75,0,0,0,2-.94l.6.72a3.44,3.44,0,0,1-2.53,1.12,2.91,2.91,0,0,1-3-3V36c.06-2.15,1.07-3.4,3-3.4S116.12,33.83,116,36Zm-2.9-2.52c-1.28,0-1.79.85-1.85,2.22H115C115.05,34.26,114.44,33.47,113.14,33.47Z"/><path class="a" d="M124,34.66v4.77h-1v-5c0-.52-.27-1-.77-1-.3,0-.56.24-.86,1,0,.11,0,.23,0,.36v4.65h-1v-4.9c0-.51-.26-.94-.77-.94s-.57.28-.85.85v4.22a2.76,2.76,0,0,0,.07.77h-1.06V32.78h1v.6a1.09,1.09,0,0,1,1.12-.79,1.33,1.33,0,0,1,1.27,1v0c.26-.68.54-1,1.3-1C123.75,32.59,124,33.48,124,34.66Z"/><path class="a" d="M125.53,36c0-2.13,1.18-3.45,3.06-3.45S131.67,34,131.67,36s-1.22,3.57-3.08,3.57S125.53,38.21,125.53,36Zm5,0c0-1.71-.73-2.64-1.95-2.63s-1.89,1-1.89,2.63.71,2.72,1.89,2.72S130.54,37.75,130.54,36Z"/><path class="a" d="M139.27,38.06A2.48,2.48,0,0,1,137,39.61a2.31,2.31,0,0,1-2.31-2.45V33.68h-1.07v-.9h1.07V30.26l1,.07v2.45h2.84v.9h-2.84v3.48A1.32,1.32,0,0,0,137,38.63a1.49,1.49,0,0,0,1.39-1Z"/><path class="a" d="M146.6,39.43h-5.06v-.81h2v-5l-1.37-.08v-.74h2.32v5.84h2v0A2.76,2.76,0,0,0,146.6,39.43Zm-3.43-8.56a.67.67,0,0,1,.74-.73.73.73,0,1,1-.74.73Z"/><path class="a" d="M148.63,36c0-2.13,1.18-3.45,3.06-3.45S154.77,34,154.77,36s-1.23,3.57-3.08,3.57S148.63,38.21,148.63,36Zm5,0c0-1.71-.73-2.64-1.95-2.63s-1.89,1-1.89,2.63.71,2.72,1.89,2.72S153.64,37.75,153.64,36Z"/><path class="a" d="M162.24,39.43H161.1V35.72a1.9,1.9,0,0,0-1.85-2.13,1.59,1.59,0,0,0-1.52,1v4.8h-1V32.78H158a1.59,1.59,0,0,0-.26.78v0a2.37,2.37,0,0,1,2-1c1.73,0,2.43,1.72,2.43,3.38v2.69A2.76,2.76,0,0,0,162.24,39.43Z"/><path class="a" d="M167.1,33.36a.73.73,0,1,1-.74.73A.67.67,0,0,1,167.1,33.36Zm0,4.44a.73.73,0,0,1,0,1.46.73.73,0,1,1,0-1.46Z"/><path class="a" d="M182.41,30.38a14,14,0,0,0-.47,1.72.74.74,0,0,1,.24.49.73.73,0,0,1-1.43.25,1,1,0,0,1,0-.39,6.11,6.11,0,0,1,1-2.26Zm1.76,2.21a.66.66,0,0,1-.6.84.65.65,0,0,1-.84-.59.83.83,0,0,1,0-.39,6.12,6.12,0,0,1,1-2.26l.61.19a14,14,0,0,0-.47,1.72A.79.79,0,0,1,184.17,32.59Z"/><path class="a" d="M192.76,39.43h-5.07v-.81h2V31.15l-1.37-.09v-.73h2.36v8.29h2v0A2.76,2.76,0,0,0,192.76,39.43Z"/><path class="a" d="M194.83,36c0-2.13,1.18-3.45,3.06-3.45S201,34,201,36s-1.23,3.57-3.08,3.57S194.83,38.21,194.83,36Zm5,0c0-1.71-.73-2.64-2-2.63S196,34.37,196,36s.71,2.72,1.89,2.72S199.84,37.75,199.84,36Z"/><path class="a" d="M207.2,39.43v-1a2.26,2.26,0,0,1-2,1.13c-1.42,0-2.45-1.49-2.45-3.26V32.77h1.06V36.6a2,2,0,0,0,1.86,2.13c.72,0,1-.44,1.53-1.24V32.78h1v5.88a2.76,2.76,0,0,0,.07.77Z"/><path class="a" d="M215.18,39.43v-.5a2.8,2.8,0,0,1-1.88.67c-1.84,0-3.07-1.46-3.07-3.68s1.08-3.33,3-3.33a2.23,2.23,0,0,1,2,1V30.26l1,.07v8.33a2.76,2.76,0,0,0,.07.77Zm0-1.8V34.79a2.24,2.24,0,0,0-2-1.32c-1.19,0-2,1-2,2.45s.86,2.73,2.08,2.73A1.77,1.77,0,0,0,215.18,37.63Z"/><path class="a" d="M220.75,31.32a6,6,0,0,1-1,2.27l-.6-.19a12.57,12.57,0,0,0,.46-1.73.76.76,0,0,1-.24-.49.73.73,0,1,1,1.43-.24A.68.68,0,0,1,220.75,31.32Zm2,0a6.17,6.17,0,0,1-1,2.27l-.61-.19a13.75,13.75,0,0,0,.47-1.73.77.77,0,0,1-.25-.49.73.73,0,0,1,1.44-.24A.94.94,0,0,1,222.74,31.32Z"/><path class="a" d="M226.84,30.33c1.44-.12,2.68.38,2.68,1.7,0,.82-.47,1.35-.47,2.32,0,.56.15,1.23,1.52,1.23v.94c-1.38,0-1.52.71-1.52,1.25,0,1,.47,1.27.47,2.13,0,1.41-1.23,2-2.68,1.87V41c.83.12,1.64-.09,1.64-1,0-.68-.46-1.2-.46-2.23,0-.82.29-1.61,1.2-1.76a1.49,1.49,0,0,1-1.2-1.66c0-1,.46-1.79.46-2.41,0-.82-.8-1-1.64-.86Z"/><path class="a" d="M234.1,41l-.71-.45,5.31-11,.72.44Z"/><path class="a" d="M246.58,36.31l-4.46,2.77-.41-.91,3.91-2.39-3.91-2.38.38-.93,4.49,2.77Z"/><path class="a" d="M15.46,49.27l.23.93-4.23,2.38L15,55l-.56.91-4.05-2.77L10.57,52Z"/><path class="a" d="M24.88,47.13l-.15.82H22.22L20.6,56.23h-1L21.22,48H18.8l.16-.82Z"/><path class="a" d="M26.67,53.38a1.68,1.68,0,0,0,1.69,2.13,3.26,3.26,0,0,0,2.12-.94l.49.72a4,4,0,0,1-2.69,1.12,2.49,2.49,0,0,1-2.6-3c.31-2.21,1.68-4,3.55-4a2.09,2.09,0,0,1,2.19,2C31.42,53.15,28.77,53.48,26.67,53.38Zm.11-.67c1.68-.11,3.63-.3,3.63-1.4A1.28,1.28,0,0,0,29,50.23C27.92,50.23,27,51.43,26.78,52.71Z"/><path class="a" d="M36.69,53l1.66,3.25h-1l-1.25-2.46-2,2.46H33l2.62-3.29-1.7-3.36h1l1.3,2.57,2.06-2.57H39.4Z"/><path class="a" d="M43.25,54.27c-.07.79.2,1.21.84,1.21a2,2,0,0,0,1.61-1.1l.26.35c-.42.89-1,1.68-2.05,1.68a1.59,1.59,0,0,1-1.69-1.9c0-.18,0-.35.07-.55.08-.49.35-1.64.62-2.87.05-.24.11-.46.15-.69H41.83l.11-.82h1.3c.23-1,.43-2,.49-2.45h1c-.07.45-.26,1.4-.49,2.45h2.05l-.11.82H44L43.9,51c-.28,1.26-.51,2.44-.62,2.94A1.89,1.89,0,0,0,43.25,54.27Z"/><path class="a" d="M56.86,55.7l-.5,2.87-1,.07,1.58-9.06h1.25a2.24,2.24,0,0,0-.39.82l-.07.42h0L57.52,52h0l-.4,2.22h0ZM62.38,53a3.82,3.82,0,0,1-3.76,3.45,2.46,2.46,0,0,1-1.76-.71l.27-1.53a1.69,1.69,0,0,0,1.65,1.29A2.74,2.74,0,0,0,61.42,53c.28-1.57-.37-2.71-1.52-2.71-.81,0-1.52.51-2.37,1.7l.2-1.13a3,3,0,0,1,2.48-1.43C61.92,49.39,62.77,50.78,62.38,53Z"/><path class="a" d="M66.37,51a3.89,3.89,0,0,1,2.52-1.39,2.79,2.79,0,0,1,1.38.33l-.76,1c-1-.54-2.87.34-3.28,1.35l-.8,4h-1l.91-4.84a.86.86,0,0,0-.51-1.06l1-.38C66.08,50.17,66.47,50.38,66.37,51Z"/><path class="a" d="M71.66,52.78c.29-2.09,1.63-3.39,3.49-3.39s2.91,1.38,2.62,3.51-1.69,3.51-3.52,3.51S71.35,55,71.66,52.78Zm5,0c.24-1.67-.35-2.58-1.56-2.57s-2.06,1-2.3,2.69.31,2.66,1.47,2.66S76.42,54.53,76.66,52.78Z"/><path class="a" d="M80,55.7l-.5,2.87-1,.07L80,49.58h1.25a2.24,2.24,0,0,0-.39.82l-.07.42h0L80.62,52h0l-.4,2.22h0ZM85.48,53a3.82,3.82,0,0,1-3.76,3.45A2.46,2.46,0,0,1,80,55.7l.27-1.53a1.69,1.69,0,0,0,1.65,1.29A2.72,2.72,0,0,0,84.51,53c.28-1.57-.36-2.71-1.51-2.71-.81,0-1.52.51-2.37,1.7l.2-1.13a3,3,0,0,1,2.48-1.43C85,49.39,85.87,50.78,85.48,53Z"/><path class="a" d="M92.68,54.44a2.17,2.17,0,0,1-2.38,2,4.58,4.58,0,0,1-1.8-.4l.46-.83a1.82,1.82,0,0,0,.79.28,2.62,2.62,0,0,0,.52,0c.86,0,1.45-.42,1.45-1a3.93,3.93,0,0,0-.89-1.8,3.15,3.15,0,0,1-.58-1.06,11.31,11.31,0,0,1-2.53,3.3L87,54.13a9.74,9.74,0,0,0,3.1-4.55h1.27a3.37,3.37,0,0,0-.32,1.27A1.67,1.67,0,0,0,91.53,52,4.74,4.74,0,0,1,92.68,54.44Z"/><path class="a" d="M95.28,54.08l.19-.82H100l-.18.82ZM95.57,52l.19-.82h4.52l-.19.82Z"/><path class="a" d="M106.32,48.82a23.4,23.4,0,0,1,.07,2.41,1.76,1.76,0,0,1-1.46,1.61c.86.14,1.06,1,.92,1.81-.16,1-.71,1.53-.82,2.23-.12.86.62,1,1.48.92l-.09.77c-1.46.12-2.62-.49-2.39-1.93.14-.84.64-1.12.81-2.13.08-.52.08-1.19-1.3-1.19l.09-.94c1.37,0,1.66-.71,1.75-1.29.16-1-.24-1.47-.1-2.31.19-1.16,1.3-1.78,2.91-1.65l-.07.77C107.3,47.78,106.45,48,106.32,48.82Z"/><path class="a" d="M111.37,53.38a1.68,1.68,0,0,0,1.69,2.13,3.22,3.22,0,0,0,2.11-.94l.49.72A3.92,3.92,0,0,1,113,56.41a2.49,2.49,0,0,1-2.6-3c.31-2.21,1.68-4,3.54-4a2.09,2.09,0,0,1,2.2,2C116.12,53.15,113.47,53.48,111.37,53.38Zm.1-.67c1.68-.11,3.63-.3,3.63-1.4a1.28,1.28,0,0,0-1.4-1.08C112.62,50.23,111.74,51.43,111.47,52.71Z"/><path class="a" d="M118.93,51.24l-.74,4.22a1.88,1.88,0,0,0-.07.77h-1.06l1.17-6.65h1l-.11.6Zm3.69,5.17c-.39,0-.6-.34-.48-.79,0-.14.19-1,.65-3.11.27-1.19.52-2.18-.29-2.18-.27,0-.67.29-1,1.06l0,.19-.82,4.65h-.94l.86-4.9c.08-.51-.11-.94-.61-.94s-.62.28-1,.85l.18-1.06a1.37,1.37,0,0,1,1.27-.79,1,1,0,0,1,1.05.89,1.45,1.45,0,0,1,1.16-.89c1.32,0,1.4,1.09,1,3-.29,1.62-.54,2.51-.61,2.82s.29.38.64.22l.17.43A2.24,2.24,0,0,1,122.62,56.41Z"/><path class="a" d="M125.55,52.78c.3-2.09,1.64-3.39,3.49-3.39s2.92,1.38,2.63,3.51-1.69,3.51-3.52,3.51S125.25,55,125.55,52.78Zm5,0c.24-1.67-.35-2.58-1.56-2.57s-2.06,1-2.3,2.69.31,2.66,1.47,2.66S130.32,54.53,130.56,52.78Z"/><path class="a" d="M135.65,54.27c-.07.79.2,1.21.84,1.21a2,2,0,0,0,1.61-1.1l.26.35c-.42.89-1,1.68-2.05,1.68a1.59,1.59,0,0,1-1.69-1.9,3.76,3.76,0,0,1,.07-.55c.08-.49.35-1.64.62-2.87l.15-.69h-1.24l.12-.82h1.3c.23-1,.43-2,.49-2.45h1c-.07.45-.26,1.4-.49,2.45h2l-.12.82h-2.11l-.14.62c-.28,1.26-.51,2.44-.62,2.94A1.89,1.89,0,0,0,135.65,54.27Z"/><path class="a" d="M146.09,54.73c-.42.89-1,1.68-2,1.68-1.36,0-1.92-1-1.63-2.45.18-.9.59-2.42.89-3.58l-1.31,0,.19-.71,2.3-.13c-.28,1.18-.89,3.26-1.07,4.38s.08,1.52.8,1.52a2,2,0,0,0,1.61-1.1Zm-1.54-7.79a.56.56,0,0,1,.62.73.77.77,0,0,1-.83.73c-.48,0-.7-.25-.63-.73A.78.78,0,0,1,144.55,46.94Z"/><path class="a" d="M148.65,52.78c.3-2.09,1.64-3.39,3.49-3.39s2.92,1.38,2.63,3.51-1.69,3.51-3.52,3.51S148.35,55,148.65,52.78Zm5,0c.24-1.67-.35-2.58-1.56-2.57s-2.06,1-2.3,2.69.31,2.66,1.47,2.66S153.42,54.53,153.66,52.78Z"/><path class="a" d="M157.63,52.9,157,56.23h-1l1.17-6.65h1.25a2.24,2.24,0,0,0-.4.82l-.21,1.19Zm4.66,2.84a2.13,2.13,0,0,1-1.35.67c-.37,0-.54-.35-.44-.81,0-.14.24-1,.76-3.08.3-1.19-.18-2.19-1.12-2.19s-1.57.78-2.55,2.79l0-.22.23-1.31c.75-1.54,1.53-2.2,2.61-2.2,1.32,0,2.12,1.38,1.71,3s-.71,2.49-.8,2.79,0,.33.16.33a1.63,1.63,0,0,0,.6-.19Z"/><path class="a" d="M166.69,54.6c.47,0,.68.26.6.72a.81.81,0,0,1-.86.74c-.47,0-.68-.26-.6-.74A.81.81,0,0,1,166.69,54.6Zm.91-4.43c.47,0,.68.25.6.72a.8.8,0,0,1-.85.73c-.48,0-.69-.25-.61-.73A.8.8,0,0,1,167.6,50.17Z"/><path class="a" d="M182.39,48.89a.62.62,0,0,1,.06.42.93.93,0,0,1-.81.87c-.48.08-.72-.14-.66-.61a1,1,0,0,1,.1-.35h0A9.53,9.53,0,0,1,182.69,47l.56.21C183.14,47.36,182.71,48.23,182.39,48.89Zm2,0a.68.68,0,0,1,.06.42.94.94,0,0,1-.82.87c-.48.08-.71-.14-.65-.61a1,1,0,0,1,.09-.35h0A9.53,9.53,0,0,1,184.67,47l.56.21C185.13,47.36,184.69,48.23,184.38,48.89Z"/><path class="a" d="M191.9,54.16l-.26,1.54a3.49,3.49,0,0,1-2,.71c-1.92,0-2.91-1.35-2.55-3.45s1.73-3.57,3.43-3.57a1.93,1.93,0,0,1,2,1.44l-.2,1.13c-.44-1.2-1-1.71-1.78-1.71-1.15,0-2.19,1.14-2.47,2.71s.43,2.5,1.77,2.5A2.57,2.57,0,0,0,191.9,54.16Zm.81-4.58h1l-1,5.88a1.88,1.88,0,0,0-.07.77h-1.06Z"/><path class="a" d="M196.12,52.9l-.58,3.33h-1l1.17-6.65H197a2.41,2.41,0,0,0-.39.82l-.21,1.19Zm4.67,2.84a2.13,2.13,0,0,1-1.35.67c-.37,0-.54-.35-.44-.81,0-.14.24-1,.75-3.08.31-1.19-.17-2.19-1.12-2.19s-1.56.78-2.54,2.79l0-.22.24-1.31c.75-1.54,1.53-2.2,2.61-2.2,1.32,0,2.12,1.38,1.71,3s-.72,2.49-.8,2.79,0,.33.16.33a1.63,1.63,0,0,0,.6-.19Z"/><path class="a" d="M209.22,49.58a7.78,7.78,0,0,0-.22.77l-1.14,5.88c-.24,1.28-1.71,2.11-3.39,2.11a4.43,4.43,0,0,1-2-.44l.78-.72a3.5,3.5,0,0,0,1.38.26c1.17,0,2.07-.41,2.23-1.21l.27-1.38a4,4,0,0,1-2.12.74c-1.8,0-2.81-1.3-2.44-3.18a3.58,3.58,0,0,1,3.63-3,1.81,1.81,0,0,1,1.79,1l.16-.81Zm-1.84,4,.39-2A1.74,1.74,0,0,0,206,50.25a2.67,2.67,0,0,0-2.5,2.16,1.74,1.74,0,0,0,1.65,2.24A2.73,2.73,0,0,0,207.38,53.55Z"/><path class="a" d="M212.67,51a3.87,3.87,0,0,1,2.52-1.39,2.81,2.81,0,0,1,1.38.33l-.76,1c-1-.54-2.87.34-3.28,1.35l-.81,4h-.95l.91-4.84c.13-.64-.15-.83-.52-1.06l1-.38C212.38,50.17,212.76,50.38,212.67,51Z"/><path class="a" d="M224.42,49.58a84.11,84.11,0,0,1-4.11,7.66,2.42,2.42,0,0,1-2.73,1.43l.25-.77c.67.14,1.24-.28,1.65-1.07l.6-1c-.47-2.22-1.32-4.72-1.31-6.25h1a26.17,26.17,0,0,0,1,5.07,45.59,45.59,0,0,0,2.57-5.07Z"/><path class="a" d="M228.5,48.16a9.53,9.53,0,0,1-1.62,2.23l-.56-.21c.1-.17.53-1,.85-1.7a.66.66,0,0,1-.06-.42.92.92,0,0,1,.82-.86c.48-.08.71.14.65.61a1,1,0,0,1-.09.35Zm2.07-.35a1.29,1.29,0,0,1-.1.35h0a9.53,9.53,0,0,1-1.62,2.23l-.56-.21c.11-.17.54-1,.85-1.7a.67.67,0,0,1-.05-.42.91.91,0,0,1,.81-.86C230.39,47.12,230.62,47.34,230.57,47.81Z"/><path class="a" d="M235.2,47.13c1.65-.13,2.56.49,2.39,1.65-.13.84-.69,1.36-.84,2.31-.08.58,0,1.29,1.34,1.29l-.2.94c-1.37,0-1.58.67-1.67,1.19-.16,1,.26,1.29.13,2.13-.22,1.44-1.57,2-3,1.93l.17-.77c.8.12,1.61-.06,1.76-.92.12-.7-.27-1.23-.12-2.23a2,2,0,0,1,1.5-1.81c-.87-.17-1.08-.81-.95-1.61.14-1,.74-1.81.83-2.41.14-.85-.65-1-1.51-.92Z"/><path class="a" d="M241,57.83l-.67-.45,6.84-11,.68.44Z"/><path class="a" d="M254.2,53.11l-4.83,2.77-.3-.91,4.23-2.39-3.57-2.38.5-.93L254.34,52Z"/><path class="a" d="M14.57,64.67l.2.8-3.63,2,3,2-.48.77L10.24,68l.14-.91Z"/><path class="a" d="M22.64,62.84l-.13.7H20.36L19,70.63h-.84l1.37-7.09H17.43l.14-.7Z"/><path class="a" d="M24.18,68.19A1.44,1.44,0,0,0,25.63,70a2.74,2.74,0,0,0,1.81-.8l.42.62a3.42,3.42,0,0,1-2.3,1,2.13,2.13,0,0,1-2.23-2.6c.27-1.89,1.44-3.41,3-3.41a1.79,1.79,0,0,1,1.88,1.7C28.25,68,26,68.28,24.18,68.19Zm.09-.57c1.44-.09,3.11-.26,3.11-1.2a1.09,1.09,0,0,0-1.2-.92C25.25,65.5,24.5,66.52,24.27,67.62Z"/><path class="a" d="M32.77,67.85l1.42,2.78H33.3l-1.07-2.1-1.68,2.1h-.93l2.25-2.81-1.46-2.88h.89l1.12,2.2,1.76-2.2h.91Z"/><path class="a" d="M38.39,69c-.06.66.17,1,.72,1a1.73,1.73,0,0,0,1.38-.94l.22.3c-.36.76-.89,1.44-1.75,1.44a1.36,1.36,0,0,1-1.45-1.63,4.32,4.32,0,0,1,.06-.47c.07-.42.3-1.4.53-2.46,0-.2.09-.39.13-.59H37.17l.1-.7h1.11c.2-.9.37-1.71.42-2.1h.84c-.06.39-.22,1.2-.42,2.1H41l-.1.7H39.07l-.12.53c-.24,1.08-.44,2.09-.53,2.52A1.39,1.39,0,0,0,38.39,69Z"/><path class="a" d="M50.06,70.17l-.43,2.46-.86.06,1.36-7.75H51.2a2,2,0,0,0-.34.7L50.8,66a0,0,0,0,0,0,0l-.17,1a0,0,0,0,1,0,0l-.34,1.9h0Zm4.73-2.34a3.29,3.29,0,0,1-3.22,3,2.1,2.1,0,0,1-1.51-.62l.23-1.3A1.46,1.46,0,0,0,51.7,70,2.34,2.34,0,0,0,54,67.83c.24-1.34-.31-2.32-1.3-2.32-.69,0-1.3.44-2,1.46l.17-1a2.53,2.53,0,0,1,2.13-1.22C54.39,64.78,55.12,66,54.79,67.83Z"/><path class="a" d="M58.21,66.13a3.32,3.32,0,0,1,2.16-1.19,2.42,2.42,0,0,1,1.18.28L60.9,66a2.44,2.44,0,0,0-2.81,1.16l-.69,3.43h-.82l.78-4.14a.74.74,0,0,0-.44-.91l.85-.32C58,65.44,58.29,65.62,58.21,66.13Z"/><path class="a" d="M62.74,67.68a3,3,0,0,1,3-2.9c1.62,0,2.5,1.18,2.25,3a3.15,3.15,0,0,1-3,3C63.35,70.79,62.48,69.57,62.74,67.68Zm4.29,0c.2-1.43-.3-2.21-1.34-2.2s-1.76.84-2,2.3S64,70.05,65,70.05,66.82,69.18,67,67.68Z"/><path class="a" d="M69.86,70.17l-.43,2.46-.86.06,1.36-7.75H71a2,2,0,0,0-.34.7L70.6,66a0,0,0,0,0,0,0l-.17,1a0,0,0,0,1,0,0l-.34,1.9h0Zm4.73-2.34a3.29,3.29,0,0,1-3.22,3,2.1,2.1,0,0,1-1.51-.62l.23-1.3A1.46,1.46,0,0,0,71.5,70a2.34,2.34,0,0,0,2.26-2.15c.24-1.34-.31-2.32-1.3-2.32-.69,0-1.3.44-2,1.46l.17-1a2.53,2.53,0,0,1,2.13-1.22C74.19,64.78,74.92,66,74.59,67.83Z"/><path class="a" d="M80.76,69.1a1.86,1.86,0,0,1-2,1.67,3.88,3.88,0,0,1-1.54-.34l.39-.7a1.61,1.61,0,0,0,.68.23,1.89,1.89,0,0,0,.44,0c.74,0,1.25-.36,1.25-.88a3.38,3.38,0,0,0-.77-1.54,2.57,2.57,0,0,1-.49-.91,10,10,0,0,1-2.17,2.83l-.62-.66a8.36,8.36,0,0,0,2.66-3.9h1.09A2.84,2.84,0,0,0,79.36,66a1.46,1.46,0,0,0,.41,1A4,4,0,0,1,80.76,69.1Z"/><path class="a" d="M83,68.79l.16-.7H87l-.16.7ZM83.24,67l.16-.7h3.87l-.16.7Z"/><path class="a" d="M92.45,64.29a20,20,0,0,1,.06,2.06,1.5,1.5,0,0,1-1.25,1.38c.74.12.91.83.79,1.55s-.61,1.3-.7,1.9.53.89,1.26.79l-.07.66c-1.25.1-2.25-.42-2.05-1.65.12-.72.55-1,.69-1.82.07-.44.07-1-1.11-1l.08-.8c1.17,0,1.42-.61,1.5-1.11.13-.81-.21-1.26-.09-2,.16-1,1.11-1.52,2.49-1.41L94,63.5C93.29,63.4,92.56,63.56,92.45,64.29Z"/><path class="a" d="M98.17,70.77c-1.48,0-2.29-.76-2.29-2.08,0-1.9,1.36-3.91,3.18-3.91a1.68,1.68,0,0,1,1.8,1.64,1.48,1.48,0,0,1,0,.21l-1.11.18a1.73,1.73,0,0,0,.05-.38.78.78,0,0,0-.81-.85c-1.25,0-2.18,1.89-2.18,3.22,0,.82.45,1.19,1.4,1.19a2.69,2.69,0,0,0,1.46-.45l.33.57A4.58,4.58,0,0,1,98.17,70.77Z"/><path class="a" d="M102.34,67.68a3,3,0,0,1,3-2.9c1.62,0,2.5,1.18,2.25,3a3.15,3.15,0,0,1-3,3C103,70.79,102.08,69.57,102.34,67.68Zm4.29,0c.2-1.43-.3-2.21-1.34-2.2s-1.76.84-2,2.3.27,2.27,1.26,2.27S106.42,69.18,106.63,67.68Z"/><path class="a" d="M112.82,68.86l-.27,1.31a3.06,3.06,0,0,1-1.75.62c-1.64,0-2.46-1.17-2.08-3s1.58-3,3-3A1.58,1.58,0,0,1,113.42,66l-.2,1c-.34-1-.78-1.47-1.47-1.47a2.62,2.62,0,0,0-2.2,2.32c-.27,1.31.29,2.15,1.44,2.15A2.31,2.31,0,0,0,112.82,68.86Zm1.27-6-1.54,7.31c-.08.37.09.64.6.64a1.91,1.91,0,0,0,.85-.25l0-.39a.56.56,0,0,1-.25.07c-.2,0-.26-.21-.16-.66l1.27-6.06c0-.22.14-.46.2-.66Z"/><path class="a" d="M119.94,69.35c-.36.76-.89,1.44-1.75,1.44-1.16,0-1.64-.83-1.39-2.1.15-.77.5-2.07.76-3.07l-1.12,0,.16-.61,2-.11c-.24,1-.76,2.79-.92,3.75s.07,1.3.69,1.3a1.73,1.73,0,0,0,1.38-.94Zm-1.32-6.67a.48.48,0,0,1,.53.62.66.66,0,0,1-.71.63c-.41,0-.6-.22-.54-.63A.67.67,0,0,1,118.62,62.68Z"/><path class="a" d="M123.23,67.78l-.5,2.85h-.85l1-5.69H124a2,2,0,0,0-.34.7l-.18,1Zm4,2.43a1.91,1.91,0,0,1-1.16.58c-.32,0-.46-.31-.38-.7,0-.11.21-.88.65-2.63.26-1-.15-1.88-1-1.88S124,66.25,123.2,68l0-.19.2-1.12c.64-1.32,1.31-1.88,2.24-1.88,1.13,0,1.81,1.18,1.46,2.56s-.61,2.13-.68,2.39,0,.27.13.27a1.2,1.2,0,0,0,.52-.16Z"/><path class="a" d="M134.45,64.94c-.06.2-.14.44-.19.66l-1,5c-.21,1.09-1.47,1.8-2.91,1.8a3.78,3.78,0,0,1-1.7-.37l.67-.62a2.92,2.92,0,0,0,1.18.22c1,0,1.77-.35,1.91-1l.23-1.18a3.36,3.36,0,0,1-1.82.63,2.06,2.06,0,0,1-2.09-2.72,3.07,3.07,0,0,1,3.11-2.58,1.56,1.56,0,0,1,1.54.85l.13-.69Zm-1.57,3.4.33-1.72a1.49,1.49,0,0,0-1.48-1.11,2.28,2.28,0,0,0-2.14,1.85A1.48,1.48,0,0,0,131,69.28,2.35,2.35,0,0,0,132.88,68.34Z"/><path class="a" d="M135.16,70.63l1.51-7.79h.86l-1.38,7.1h3.63l-.13.69Z"/><path class="a" d="M146,68.86l-.23,1.31a3,3,0,0,1-1.73.62c-1.64,0-2.49-1.17-2.18-3s1.48-3,2.94-3a1.65,1.65,0,0,1,1.7,1.23l-.17,1c-.38-1-.83-1.47-1.52-1.47a2.51,2.51,0,0,0-2.12,2.32c-.23,1.31.37,2.15,1.52,2.15A2.22,2.22,0,0,0,146,68.86Zm.69-3.92h.84l-.87,5a1.47,1.47,0,0,0-.06.65h-.91Z"/><path class="a" d="M149.63,67.78l-.5,2.85h-.85l1-5.69h1.07a2,2,0,0,0-.34.7l-.18,1Zm4,2.43a1.91,1.91,0,0,1-1.16.58c-.32,0-.46-.31-.38-.7,0-.11.21-.88.65-2.63.26-1-.15-1.88-1-1.88s-1.34.67-2.18,2.39l0-.19.2-1.12c.64-1.32,1.31-1.88,2.24-1.88,1.13,0,1.81,1.18,1.46,2.56s-.61,2.13-.68,2.39,0,.27.13.27a1.2,1.2,0,0,0,.52-.16Z"/><path class="a" d="M160.84,64.94c-.05.2-.13.44-.18.66l-1,5c-.21,1.09-1.47,1.8-2.91,1.8a3.78,3.78,0,0,1-1.7-.37l.67-.62a2.92,2.92,0,0,0,1.18.22c1,0,1.77-.35,1.91-1l.23-1.18a3.36,3.36,0,0,1-1.82.63,2.06,2.06,0,0,1-2.09-2.72,3.07,3.07,0,0,1,3.11-2.58,1.56,1.56,0,0,1,1.54.85l.13-.69Zm-1.56,3.4.33-1.72a1.49,1.49,0,0,0-1.48-1.11A2.28,2.28,0,0,0,156,67.36a1.48,1.48,0,0,0,1.41,1.92A2.35,2.35,0,0,0,159.28,68.34Z"/><path class="a" d="M166.18,70a1.23,1.23,0,0,0-.06.65h-.91l.16-.81a2.43,2.43,0,0,1-1.9,1c-1.22,0-1.85-1.28-1.56-2.79l.59-3.07h.91l-.63,3.28c-.19,1,.3,1.83,1.24,1.83.62,0,1-.38,1.51-1.07l-.09.48.86-4.51h.85Z"/><path class="a" d="M172.41,68.86l-.23,1.31a3,3,0,0,1-1.73.62c-1.64,0-2.49-1.17-2.18-3s1.48-3,2.94-3a1.65,1.65,0,0,1,1.7,1.23l-.17,1c-.38-1-.83-1.47-1.52-1.47a2.51,2.51,0,0,0-2.12,2.32c-.23,1.31.37,2.15,1.52,2.15A2.22,2.22,0,0,0,172.41,68.86Zm.69-3.92H174l-.88,5a1.47,1.47,0,0,0-.06.65h-.91Z"/><path class="a" d="M180.64,64.94a6.36,6.36,0,0,0-.18.66l-1,5c-.21,1.09-1.47,1.8-2.91,1.8a3.78,3.78,0,0,1-1.7-.37l.67-.62a2.92,2.92,0,0,0,1.18.22c1,0,1.77-.35,1.91-1l.23-1.18a3.36,3.36,0,0,1-1.82.63A2.06,2.06,0,0,1,175,67.36a3.07,3.07,0,0,1,3.11-2.58,1.56,1.56,0,0,1,1.54.85l.13-.69Zm-1.56,3.4.33-1.72a1.49,1.49,0,0,0-1.48-1.11,2.28,2.28,0,0,0-2.14,1.85,1.48,1.48,0,0,0,1.41,1.92A2.35,2.35,0,0,0,179.08,68.34Z"/><path class="a" d="M182.58,68.19A1.44,1.44,0,0,0,184,70a2.71,2.71,0,0,0,1.8-.8l.42.62a3.38,3.38,0,0,1-2.29,1,2.13,2.13,0,0,1-2.23-2.6c.27-1.89,1.44-3.41,3-3.41a1.79,1.79,0,0,1,1.87,1.7C186.64,68,184.38,68.28,182.58,68.19Zm.09-.57c1.44-.09,3.11-.26,3.11-1.2a1.09,1.09,0,0,0-1.2-.92C183.65,65.5,182.9,66.52,182.67,67.62Z"/><path class="a" d="M190.4,69.24c.4,0,.58.22.51.62a.69.69,0,0,1-.73.62c-.41,0-.59-.22-.52-.62A.7.7,0,0,1,190.4,69.24Zm.77-3.8c.41,0,.58.22.51.62a.67.67,0,0,1-.72.63c-.41,0-.59-.22-.52-.63A.69.69,0,0,1,191.17,65.44Z"/><path class="b" d="M203.86,64.35a.56.56,0,0,1,0,.36.79.79,0,0,1-.7.74c-.41.07-.61-.12-.56-.52a1,1,0,0,1,.08-.3h0a8.07,8.07,0,0,1,1.39-1.91l.47.18C204.5,63,204.13,63.78,203.86,64.35Zm1.69,0a.56.56,0,0,1,0,.36.79.79,0,0,1-.69.74c-.41.07-.61-.12-.56-.52a1,1,0,0,1,.08-.3h0a7.79,7.79,0,0,1,1.38-1.91l.48.18C206.19,63,205.82,63.78,205.55,64.35Z"/><path class="b" d="M210,69c-.06.66.17,1,.72,1a1.72,1.72,0,0,0,1.37-.94l.22.3c-.36.76-.88,1.44-1.74,1.44a1.36,1.36,0,0,1-1.45-1.63,4.32,4.32,0,0,1,.06-.47c.07-.42.3-1.4.53-2.46,0-.2.09-.39.13-.59h-1.06l.1-.7H210c.2-.9.37-1.71.42-2.1h.84c-.07.39-.23,1.2-.42,2.1h1.75l-.1.7h-1.8l-.13.53c-.23,1.08-.43,2.09-.52,2.52A1.39,1.39,0,0,0,210,69Z"/><path class="b" d="M220.07,64.94a71.79,71.79,0,0,1-3.51,6.55,2.07,2.07,0,0,1-2.34,1.23l.22-.66c.57.12,1.06-.24,1.41-.92l.51-.85a35.28,35.28,0,0,1-1.12-5.35h.83a22.54,22.54,0,0,0,.85,4.34,38.48,38.48,0,0,0,2.2-4.34Z"/><path class="b" d="M221.66,70.17l-.43,2.46-.86.06,1.36-7.75h1.07a2,2,0,0,0-.34.7l-.06.36a0,0,0,0,0,0,0l-.17,1a0,0,0,0,1,0,0l-.34,1.9h0Zm4.72-2.34a3.29,3.29,0,0,1-3.21,3,2.1,2.1,0,0,1-1.51-.62l.23-1.3A1.46,1.46,0,0,0,223.3,70a2.33,2.33,0,0,0,2.25-2.15c.24-1.34-.31-2.32-1.3-2.32-.68,0-1.29.44-2,1.46l.17-1a2.53,2.53,0,0,1,2.13-1.22C226,64.78,226.71,66,226.38,67.83Z"/><path class="b" d="M228.78,68.19A1.44,1.44,0,0,0,230.23,70a2.74,2.74,0,0,0,1.8-.8l.42.62a3.41,3.41,0,0,1-2.29,1,2.13,2.13,0,0,1-2.23-2.6c.27-1.89,1.44-3.41,3-3.41a1.79,1.79,0,0,1,1.88,1.7C232.84,68,230.58,68.28,228.78,68.19Zm.09-.57c1.43-.09,3.1-.26,3.1-1.2a1.09,1.09,0,0,0-1.2-.92C229.85,65.5,229.1,66.52,228.87,67.62Z"/><path class="b" d="M239.15,69.1a1.86,1.86,0,0,1-2,1.67,3.87,3.87,0,0,1-1.53-.34l.38-.7a1.66,1.66,0,0,0,.68.23,1.94,1.94,0,0,0,.44,0c.74,0,1.25-.36,1.25-.88a3.38,3.38,0,0,0-.77-1.54,2.57,2.57,0,0,1-.49-.91,9.82,9.82,0,0,1-2.16,2.83l-.62-.66a8.27,8.27,0,0,0,2.65-3.9H238a2.84,2.84,0,0,0-.28,1.09,1.46,1.46,0,0,0,.41,1A4,4,0,0,1,239.15,69.1Z"/><path class="b" d="M243.36,70.77c-1.48,0-2.28-.76-2.28-2.08,0-1.9,1.35-3.91,3.17-3.91a1.68,1.68,0,0,1,1.8,1.64,1.48,1.48,0,0,1,0,.21l-1.11.18a1.73,1.73,0,0,0,0-.38.78.78,0,0,0-.81-.85c-1.25,0-2.17,1.89-2.17,3.22,0,.82.45,1.19,1.39,1.19a2.69,2.69,0,0,0,1.46-.45l.33.57A4.58,4.58,0,0,1,243.36,70.77Z"/><path class="b" d="M249.6,66.13a3.32,3.32,0,0,1,2.16-1.19,2.42,2.42,0,0,1,1.18.28l-.65.82a2.44,2.44,0,0,0-2.81,1.16l-.69,3.43H248l.78-4.14a.74.74,0,0,0-.44-.91l.85-.32C249.35,65.44,249.68,65.62,249.6,66.13Z"/><path class="b" d="M258.53,69.35c-.36.76-.89,1.44-1.75,1.44-1.16,0-1.63-.83-1.38-2.1.14-.77.49-2.07.76-3.07l-1.12,0,.16-.61,2-.11c-.24,1-.76,2.79-.91,3.75s.06,1.3.68,1.3a1.73,1.73,0,0,0,1.38-.94Zm-1.32-6.67a.48.48,0,0,1,.53.62.66.66,0,0,1-.71.63c-.41,0-.6-.22-.54-.63A.67.67,0,0,1,257.21,62.68Z"/><path class="b" d="M261.25,70.17l-.42,2.46-.86.06,1.36-7.75h1.06a2,2,0,0,0-.34.7L262,66s0,0,0,0l-.17,1s0,0,0,0l-.34,1.9h0ZM266,67.83a3.29,3.29,0,0,1-3.22,3,2.1,2.1,0,0,1-1.51-.62l.24-1.3a1.46,1.46,0,0,0,1.4,1.11,2.34,2.34,0,0,0,2.26-2.15c.24-1.34-.31-2.32-1.3-2.32-.69,0-1.3.44-2,1.46l.17-1a2.5,2.5,0,0,1,2.12-1.22C265.58,64.78,266.31,66,266,67.83Z"/><path class="b" d="M269.38,69c-.06.66.17,1,.72,1a1.73,1.73,0,0,0,1.38-.94l.22.3c-.36.76-.89,1.44-1.75,1.44a1.36,1.36,0,0,1-1.45-1.63,4.32,4.32,0,0,1,.06-.47c.07-.42.3-1.4.53-2.46,0-.2.09-.39.13-.59h-1.05l.09-.7h1.11c.2-.9.37-1.71.42-2.1h.84c-.06.39-.22,1.2-.42,2.1H272l-.1.7h-1.81l-.12.53c-.24,1.08-.44,2.09-.53,2.52A1.39,1.39,0,0,0,269.38,69Z"/><path class="b" d="M276.37,63.72A8.07,8.07,0,0,1,275,65.63l-.48-.18c.09-.14.45-.88.73-1.45a.56.56,0,0,1-.06-.36.79.79,0,0,1,.7-.74c.41-.07.61.12.56.52a1,1,0,0,1-.08.3Zm1.77-.3a1,1,0,0,1-.08.3h0a8.07,8.07,0,0,1-1.39,1.91l-.48-.18c.09-.14.46-.88.73-1.45a.56.56,0,0,1-.05-.36.79.79,0,0,1,.7-.74C278,62.83,278.19,63,278.14,63.42Z"/><path class="a" d="M280.45,72l-.57-.39,5.85-9.38.58.38Z"/><path class="a" d="M288.71,62.84c1.42-.11,2.2.42,2.05,1.41-.11.72-.59,1.17-.72,2-.07.5,0,1.11,1.15,1.11l-.17.8c-1.18,0-1.36.58-1.43,1-.14.87.22,1.1.11,1.82a2.17,2.17,0,0,1-2.57,1.65l.14-.66c.69.1,1.38,0,1.51-.79s-.23-1.05-.1-1.9A1.67,1.67,0,0,1,290,67.73c-.74-.14-.92-.69-.81-1.38a21.41,21.41,0,0,1,.71-2.06c.12-.73-.56-.89-1.29-.79Z"/><path class="c" d="M13.25,78.69a20,20,0,0,1,.06,2.06,1.5,1.5,0,0,1-1.25,1.38c.74.12.91.83.79,1.55s-.61,1.31-.7,1.9.53.89,1.26.79l-.07.66c-1.25.1-2.25-.42-2.05-1.65.12-.71.55-.95.69-1.82.07-.44.07-1-1.11-1l.08-.8c1.17,0,1.42-.61,1.5-1.11.13-.81-.21-1.26-.09-2,.16-1,1.11-1.52,2.49-1.41l-.06.66C14.09,77.8,13.36,78,13.25,78.69Z"/><path class="c" d="M16.55,86.4,16,86l5.86-9.38.58.38Zm6.91-7.58.47-.6,1.19.48.34-1.51.73,0-.25,1.55,1.46-.35.2.64-1.66.59L26.81,81l-.66.38-.93-1-1.08.87-.58-.48,1.19-1.15Z"/><path class="c" d="M39.81,83l1.12-5.74h.84l-1.1,5.68a2.74,2.74,0,0,1-2.93,2.27c-1.63,0-2.28-.87-2-2.21l1.12-5.74h.84l-1.1,5.68c-.19,1,.42,1.57,1.41,1.57A1.74,1.74,0,0,0,39.81,83Z"/><path class="c" d="M47.16,83.5a1.85,1.85,0,0,1-2,1.67,3.71,3.71,0,0,1-1.54-.34l.39-.7a1.62,1.62,0,0,0,.68.24,2.76,2.76,0,0,0,.44,0c.74,0,1.25-.36,1.25-.88A3.38,3.38,0,0,0,45.57,82a2.57,2.57,0,0,1-.49-.91,10,10,0,0,1-2.17,2.83l-.62-.66A8.36,8.36,0,0,0,45,79.34H46a2.84,2.84,0,0,0-.28,1.09,1.46,1.46,0,0,0,.41,1A4,4,0,0,1,47.16,83.5Z"/><path class="c" d="M50,82.59a1.45,1.45,0,0,0,1.45,1.83,2.77,2.77,0,0,0,1.81-.81l.42.62a3.42,3.42,0,0,1-2.3,1,2.13,2.13,0,0,1-2.23-2.6c.27-1.89,1.44-3.41,3-3.41a1.79,1.79,0,0,1,1.88,1.7C54.05,82.4,51.78,82.68,50,82.59Zm.09-.57c1.44-.09,3.11-.26,3.11-1.2A1.09,1.09,0,0,0,52,79.9C51.05,79.9,50.3,80.92,50.07,82Z"/><path class="c" d="M61.84,85l1.51-7.8h2.33a1.89,1.89,0,0,1,2,2.45c-.33,1.64-1.62,2.23-3.46,2.23H63.3L62.7,85Zm2.2-7-.58,3h1.38a1.83,1.83,0,0,0,2-1.52c.18-.94-.27-1.46-1.32-1.46Z"/><path class="c" d="M70.81,80.53A3.32,3.32,0,0,1,73,79.34a2.42,2.42,0,0,1,1.18.28l-.65.82a2.44,2.44,0,0,0-2.81,1.16L70,85h-.82L70,80.89a.74.74,0,0,0-.44-.91l.85-.32C70.56,79.84,70.89,80,70.81,80.53Z"/><path class="c" d="M79.74,83.75c-.36.76-.89,1.44-1.75,1.44-1.16,0-1.64-.83-1.39-2.1.15-.77.5-2.07.76-3.07l-1.12,0,.16-.61,2-.11c-.24,1-.76,2.79-.92,3.75s.07,1.3.69,1.3a1.73,1.73,0,0,0,1.38-.94Zm-1.32-6.67a.48.48,0,0,1,.53.62.66.66,0,0,1-.71.63c-.41,0-.6-.22-.54-.63A.67.67,0,0,1,78.42,77.08Z"/><path class="c" d="M86.76,83.5a1.85,1.85,0,0,1-2,1.67,3.71,3.71,0,0,1-1.54-.34l.39-.7a1.62,1.62,0,0,0,.68.24,2.76,2.76,0,0,0,.44,0c.74,0,1.25-.36,1.25-.88A3.38,3.38,0,0,0,85.17,82a2.57,2.57,0,0,1-.49-.91,10,10,0,0,1-2.17,2.83l-.62-.66a8.36,8.36,0,0,0,2.66-3.9h1.09a2.84,2.84,0,0,0-.28,1.09,1.46,1.46,0,0,0,.41,1A4,4,0,0,1,86.76,83.5Z"/><path class="c" d="M89.46,80.76l-.63,3.62a1.5,1.5,0,0,0-.06.66h-.91l1-5.7h.85l-.09.51Zm3.16,4.43c-.33,0-.51-.29-.41-.68,0-.12.16-.88.56-2.66.23-1,.44-1.87-.25-1.87-.23,0-.57.25-.88.91l0,.16-.7,4H90.1l.74-4.2c.07-.44-.09-.81-.52-.81s-.53.24-.86.73l.16-.91a1.16,1.16,0,0,1,1.08-.67.88.88,0,0,1,.9.76,1.24,1.24,0,0,1,1-.76c1.13,0,1.2.93.9,2.57-.25,1.38-.47,2.15-.53,2.41s.25.33.55.19l.15.36A2,2,0,0,1,92.62,85.19Z"/><path class="c" d="M104,81.19h2.45l0,.75-1.68,0a4.91,4.91,0,0,1,.76,2.47,2.88,2.88,0,0,1-1.32,2.45,1.3,1.3,0,0,1-.75.29c-.84,0-1-1-1-2a10.36,10.36,0,0,1,.54-3.19h-1V81.2h1.29c.53-1.76.85-4.12,2.27-4.12a1.3,1.3,0,0,1,1.36,1.26,1.56,1.56,0,0,1-.46,1.06l-.29-.17a1.06,1.06,0,0,0,.13-.49.78.78,0,0,0-.71-.82c-.65,0-.81,1.13-1.5,3.27Zm-.15.77h-.1a10.82,10.82,0,0,0-.52,3.16c0,.64.1,1.1.36,1.1a.34.34,0,0,0,.19-.07,2.14,2.14,0,0,0,.83-1.82A3.7,3.7,0,0,0,103.88,82Z"/><path class="c" d="M108.34,82.08a3,3,0,0,1,3-2.9c1.62,0,2.5,1.18,2.25,3a3.15,3.15,0,0,1-3,3C109,85.19,108.08,84,108.34,82.08Zm4.29,0c.2-1.43-.3-2.21-1.34-2.2s-1.76.84-2,2.3.27,2.28,1.26,2.28S112.42,83.58,112.63,82.08Z"/><path class="c" d="M117,80.53a3.32,3.32,0,0,1,2.16-1.19,2.42,2.42,0,0,1,1.18.28l-.65.82a2.44,2.44,0,0,0-2.81,1.16L116.2,85h-.82l.78-4.15a.74.74,0,0,0-.44-.91l.85-.32C116.76,79.84,117.09,80,117,80.53Z"/><path class="c" d="M130.19,83.36c-.06.67.17,1,.72,1a1.73,1.73,0,0,0,1.38-.94l.22.3c-.36.76-.89,1.44-1.75,1.44a1.36,1.36,0,0,1-1.45-1.63,4.32,4.32,0,0,1,.06-.47c.07-.42.3-1.4.53-2.46,0-.2.09-.39.13-.59H129l.1-.7h1.11c.2-.9.37-1.71.42-2.1h.84c-.06.39-.22,1.2-.42,2.1h1.76l-.1.7h-1.81l-.12.53c-.24,1.08-.44,2.09-.53,2.52A1.39,1.39,0,0,0,130.19,83.36Z"/><path class="c" d="M139.61,84.25l.13.37a2,2,0,0,1-1.17.57c-.32,0-.46-.31-.37-.69,0-.12.23-.89.69-2.64.28-1-.11-1.88-.92-1.88s-1.33.65-2.19,2.32L135.23,85h-.85l1.6-7.86.83.06-.75,3.7c.64-1.23,1.31-1.76,2.21-1.76,1.13,0,1.79,1.18,1.42,2.56s-.65,2.13-.72,2.39,0,.28.12.28A1.37,1.37,0,0,0,139.61,84.25Z"/><path class="c" d="M145.41,83.26l-.23,1.32a3,3,0,0,1-1.73.61c-1.64,0-2.49-1.16-2.18-3s1.48-3,2.94-3a1.65,1.65,0,0,1,1.7,1.23l-.17,1c-.38-1-.83-1.47-1.52-1.47a2.51,2.51,0,0,0-2.12,2.32c-.23,1.31.37,2.15,1.52,2.15A2.22,2.22,0,0,0,145.41,83.26Zm.69-3.92h.84l-.87,5A1.5,1.5,0,0,0,146,85h-.91Z"/><path class="c" d="M150,83.36c-.06.67.17,1,.72,1a1.73,1.73,0,0,0,1.38-.94l.22.3c-.36.76-.89,1.44-1.75,1.44a1.36,1.36,0,0,1-1.45-1.63,4.32,4.32,0,0,1,.06-.47c.07-.42.3-1.4.53-2.46,0-.2.09-.39.13-.59h-1.06l.1-.7H150c.2-.9.37-1.71.42-2.1h.84c-.06.39-.22,1.2-.42,2.1h1.76l-.1.7h-1.81l-.12.53c-.24,1.08-.44,2.09-.53,2.52A1.39,1.39,0,0,0,150,83.36Z"/><path class="c" d="M166,83.5a1.85,1.85,0,0,1-2,1.67,3.71,3.71,0,0,1-1.54-.34l.39-.7a1.62,1.62,0,0,0,.68.24,2.76,2.76,0,0,0,.44,0c.74,0,1.25-.36,1.25-.88a3.38,3.38,0,0,0-.77-1.54,2.57,2.57,0,0,1-.49-.91,10,10,0,0,1-2.17,2.83l-.62-.66a8.36,8.36,0,0,0,2.66-3.9h1.09a2.84,2.84,0,0,0-.28,1.09,1.46,1.46,0,0,0,.41,1A4,4,0,0,1,166,83.5Z"/><path class="c" d="M173.27,79.34a69.36,69.36,0,0,1-3.51,6.55,2.07,2.07,0,0,1-2.34,1.23l.22-.66c.57.12,1.06-.24,1.41-.92l.51-.85a35.28,35.28,0,0,1-1.12-5.35h.83a22.66,22.66,0,0,0,.86,4.34,40.29,40.29,0,0,0,2.2-4.34Z"/><path class="c" d="M175.43,82.18l-.5,2.86h-.85l1-5.7h1.07a2,2,0,0,0-.34.7l-.18,1Zm4,2.44a1.92,1.92,0,0,1-1.16.57c-.31,0-.46-.31-.38-.69,0-.12.21-.89.66-2.64.25-1-.16-1.88-1-1.88s-1.34.67-2.18,2.39l0-.19.2-1.12c.64-1.32,1.31-1.88,2.24-1.88,1.12,0,1.8,1.18,1.45,2.56s-.61,2.13-.68,2.39,0,.28.13.28a1.37,1.37,0,0,0,.52-.16Z"/><path class="c" d="M183,83.36c-.06.67.17,1,.72,1a1.7,1.7,0,0,0,1.37-.94l.23.3c-.36.76-.89,1.44-1.75,1.44a1.36,1.36,0,0,1-1.45-1.63,4.32,4.32,0,0,1,.06-.47c.07-.42.3-1.4.53-2.46,0-.2.09-.39.13-.59h-1.06l.1-.7H183c.2-.9.37-1.71.42-2.1h.84c-.06.39-.22,1.2-.42,2.1h1.76l-.1.7h-1.81l-.12.53c-.24,1.08-.44,2.09-.53,2.52A1.39,1.39,0,0,0,183,83.36Z"/><path class="c" d="M191.61,83.26l-.23,1.32a3,3,0,0,1-1.73.61c-1.64,0-2.49-1.16-2.18-3s1.48-3,2.94-3a1.63,1.63,0,0,1,1.69,1.23l-.17,1c-.38-1-.82-1.47-1.51-1.47a2.51,2.51,0,0,0-2.12,2.32c-.23,1.31.37,2.15,1.52,2.15A2.22,2.22,0,0,0,191.61,83.26Zm.68-3.92h.85l-.88,5a1.36,1.36,0,0,0,0,.66h-.92Z"/><path class="c" d="M197.17,82.25,198.58,85h-.88l-1.07-2.11L195,85H194l2.25-2.82-1.46-2.88h.89l1.12,2.2,1.75-2.2h.91Z"/><path class="c" d="M212.2,84.25l.13.37a2,2,0,0,1-1.16.57c-.33,0-.46-.31-.38-.69,0-.12.24-.89.69-2.64.28-1-.1-1.88-.91-1.88s-1.33.65-2.19,2.32L207.83,85H207l1.6-7.86.83.06-.75,3.7c.64-1.23,1.31-1.76,2.21-1.76,1.12,0,1.78,1.18,1.41,2.56s-.65,2.13-.72,2.39,0,.28.12.28A1.37,1.37,0,0,0,212.2,84.25Z"/><path class="c" d="M218.33,83.75c-.36.76-.89,1.44-1.75,1.44-1.15,0-1.63-.83-1.38-2.1.15-.77.5-2.07.76-3.07l-1.12,0,.16-.61,2-.11c-.23,1-.75,2.79-.91,3.75s.07,1.3.69,1.3a1.73,1.73,0,0,0,1.37-.94ZM217,77.08c.41,0,.59.22.53.62a.66.66,0,0,1-.71.63c-.4,0-.59-.22-.54-.63A.68.68,0,0,1,217,77.08Z"/><path class="c" d="M226.24,79.34c-.06.2-.14.44-.19.66l-1,5c-.21,1.08-1.47,1.79-2.9,1.79a3.78,3.78,0,0,1-1.7-.37l.67-.62a2.92,2.92,0,0,0,1.18.22c1,0,1.76-.35,1.9-1l.23-1.19a3.37,3.37,0,0,1-1.81.64,2.07,2.07,0,0,1-2.09-2.73,3.07,3.07,0,0,1,3.11-2.58,1.56,1.56,0,0,1,1.53.85l.13-.69Zm-1.57,3.4L225,81a1.49,1.49,0,0,0-1.48-1.11,2.28,2.28,0,0,0-2.13,1.85,1.48,1.48,0,0,0,1.4,1.92A2.35,2.35,0,0,0,224.67,82.74Z"/><path class="c" d="M232,84.25l.13.37a2,2,0,0,1-1.17.57c-.32,0-.46-.31-.37-.69,0-.12.23-.89.69-2.64.28-1-.11-1.88-.92-1.88s-1.32.65-2.18,2.32L227.63,85h-.85l1.6-7.86.83.06-.75,3.7c.63-1.23,1.3-1.76,2.2-1.76,1.13,0,1.79,1.18,1.42,2.56s-.65,2.13-.72,2.39,0,.28.12.28A1.37,1.37,0,0,0,232,84.25Z"/><path class="c" d="M238.16,83.45l.22.3a2.06,2.06,0,0,1-1.78,1.44c-.95,0-1.29-.48-1.29-1.38a7.14,7.14,0,0,1,.22-1.48,7.68,7.68,0,0,1-1.31.68l-.13-.56a4.59,4.59,0,0,0,1.62-.9c.49-2.69,1.12-4.47,1.71-4.47a1.34,1.34,0,0,1,1.07,1.39c0,1.22-.6,2.23-2.2,3.41-.08.38-.14.79-.22,1.21a2.57,2.57,0,0,0,0,.45c0,.56.22.85.72.85A1.74,1.74,0,0,0,238.16,83.45ZM236.49,81a3.8,3.8,0,0,0,1.37-2.33c0-.25-.05-.62-.32-.62S236.88,79.15,236.49,81Z"/><path class="c" d="M244.73,83.75c-.36.76-.89,1.44-1.75,1.44-1.15,0-1.63-.83-1.38-2.1.15-.77.49-2.07.76-3.07l-1.12,0,.16-.61,2-.11c-.24,1-.76,2.79-.91,3.75s.06,1.3.68,1.3a1.73,1.73,0,0,0,1.38-.94Zm-1.32-6.67a.48.48,0,0,1,.53.62.66.66,0,0,1-.71.63.49.49,0,0,1-.54-.63A.67.67,0,0,1,243.41,77.08Z"/><path class="c" d="M252.64,79.34c-.06.2-.14.44-.19.66l-1,5c-.21,1.08-1.47,1.79-2.9,1.79a3.78,3.78,0,0,1-1.7-.37l.66-.62a3,3,0,0,0,1.18.22c1,0,1.77-.35,1.91-1l.23-1.19a3.38,3.38,0,0,1-1.82.64A2.07,2.07,0,0,1,247,81.76a3.06,3.06,0,0,1,3.1-2.58,1.56,1.56,0,0,1,1.54.85l.13-.69Zm-1.57,3.4L251.4,81a1.49,1.49,0,0,0-1.48-1.11,2.27,2.27,0,0,0-2.13,1.85,1.48,1.48,0,0,0,1.4,1.92A2.35,2.35,0,0,0,251.07,82.74Z"/><path class="c" d="M258.4,84.25l.13.37a2,2,0,0,1-1.17.57c-.32,0-.46-.31-.37-.69,0-.12.23-.89.69-2.64.28-1-.11-1.88-.92-1.88s-1.33.65-2.18,2.32L254,85h-.85l1.59-7.86.83.06-.75,3.7c.64-1.23,1.31-1.76,2.21-1.76,1.13,0,1.79,1.18,1.42,2.56s-.65,2.13-.72,2.39,0,.28.12.28A1.37,1.37,0,0,0,258.4,84.25Z"/><path class="c" d="M262.18,83.36c-.06.67.17,1,.72,1a1.73,1.73,0,0,0,1.38-.94l.22.3c-.36.76-.89,1.44-1.75,1.44a1.36,1.36,0,0,1-1.44-1.63,2.75,2.75,0,0,1,.06-.47c.07-.42.3-1.4.52-2.46,0-.2.1-.39.13-.59h-1l.1-.7h1.1c.21-.9.37-1.71.42-2.1h.84c-.06.39-.22,1.2-.42,2.1h1.76l-.1.7h-1.81l-.12.53c-.24,1.08-.44,2.09-.53,2.52A1.39,1.39,0,0,0,262.18,83.36Z"/><path class="c" d="M271.13,83.75c-.36.76-.89,1.44-1.75,1.44-1.16,0-1.63-.83-1.38-2.1.14-.77.49-2.07.75-3.07l-1.12,0,.16-.61,2-.11c-.24,1-.76,2.79-.92,3.75s.07,1.3.69,1.3a1.73,1.73,0,0,0,1.38-.94Zm-1.32-6.67a.48.48,0,0,1,.53.62.66.66,0,0,1-.71.63c-.41,0-.6-.22-.54-.63A.67.67,0,0,1,269.81,77.08Z"/><path class="c" d="M274.42,82.18l-.5,2.86h-.84l1-5.7h1.06a2,2,0,0,0-.34.7l-.18,1Zm4,2.44a1.92,1.92,0,0,1-1.16.57c-.32,0-.46-.31-.38-.69,0-.12.21-.89.65-2.64.26-1-.15-1.88-1-1.88s-1.34.67-2.18,2.39l0-.19.2-1.12c.64-1.32,1.31-1.88,2.24-1.88,1.13,0,1.81,1.18,1.46,2.56s-.61,2.13-.68,2.39,0,.28.13.28a1.37,1.37,0,0,0,.52-.16Z"/><path class="c" d="M285.64,79.34c-.06.2-.14.44-.19.66l-1,5c-.21,1.08-1.47,1.79-2.91,1.79a3.7,3.7,0,0,1-1.69-.37l.66-.62a2.92,2.92,0,0,0,1.18.22c1,0,1.77-.35,1.91-1l.23-1.19a3.38,3.38,0,0,1-1.82.64A2.06,2.06,0,0,1,280,81.76a3,3,0,0,1,3.1-2.58,1.56,1.56,0,0,1,1.54.85l.13-.69Zm-1.57,3.4L284.4,81a1.49,1.49,0,0,0-1.48-1.11,2.28,2.28,0,0,0-2.14,1.85,1.48,1.48,0,0,0,1.41,1.92A2.35,2.35,0,0,0,284.07,82.74Z"/><path class="c" d="M295.27,78.7l.47-.6,1.19.48.34-1.51.73.05-.25,1.55,1.46-.35.21.64-1.67.59.87,1.28-.66.38-.93-1-1.08.87-.58-.48,1.19-1.15Zm3.44,7.7-.57-.39L304,76.63l.58.38Z"/><path class="c" d="M307.31,77.24c1.42-.11,2.2.42,2.05,1.41-.11.72-.59,1.17-.72,2-.07.5,0,1.11,1.15,1.11l-.17.8c-1.18,0-1.36.58-1.43,1-.14.87.22,1.11.11,1.82A2.17,2.17,0,0,1,305.73,87l.14-.66c.69.1,1.38-.05,1.51-.79s-.23-1-.1-1.9a1.67,1.67,0,0,1,1.28-1.55c-.74-.14-.92-.69-.81-1.38a21.41,21.41,0,0,1,.71-2.06c.12-.73-.56-.89-1.29-.79Z"/><path class="d" d="M275.68,4.53c4.75,26.65,6,36.33,6.08,37.12"/><path class="d" d="M283.7,9c4.77,26.76,6,36.47,6.1,37.26"/><path class="d" d="M290.4,4.59c4.81,27,6,36.8,6.15,37.6"/><path class="d" d="M315,8.07c-29.66,18.83-40.67,25.06-41.57,25.58"/><path class="d" d="M315,33.43c-15.8-8.13-21.12-11.49-21.56-11.76"/></svg>